<svg xmlns="http://www.w3.org/2000/svg" width="179.399" height="56.75" viewBox="0 0 179.399 56.75">
  <g id="Group_1676" data-name="Group 1676" transform="translate(-4887.5 115.5)">
    <path id="Path_674" data-name="Path 674" d="M217.024,74.75H49.775A5.591,5.591,0,0,1,44.2,69.175v-44.6A5.591,5.591,0,0,1,49.775,19H217.024a5.591,5.591,0,0,1,5.575,5.575v44.6A5.591,5.591,0,0,1,217.024,74.75Z" transform="translate(4843.8 -134)" fill="none" stroke="#fff" stroke-width="1"/>
    <path id="Path_675" data-name="Path 675" d="M77.8,41.643a8.081,8.081,0,0,1,3.763-6.551,8.684,8.684,0,0,0-6.272-3.484c-2.648-.279-5.3,1.533-6.551,1.533-1.394,0-3.484-1.533-5.714-1.533a8.28,8.28,0,0,0-7.108,4.321c-3.066,5.3-.836,13.1,2.091,17.422,1.533,2.091,3.206,4.46,5.436,4.321s3.066-1.394,5.714-1.394,3.345,1.394,5.714,1.394,3.9-2.091,5.3-4.181a15.976,15.976,0,0,0,2.369-4.878C82.4,48.473,77.8,46.8,77.8,41.643Z" transform="translate(4847.833 -129.047)" fill="#fff"/>
    <path id="Path_676" data-name="Path 676" d="M69.531,31.175A8.643,8.643,0,0,0,71.343,25.6a7.464,7.464,0,0,0-5.017,2.648,7.048,7.048,0,0,0-1.812,5.3A6.62,6.62,0,0,0,69.531,31.175Z" transform="translate(4851.779 -131.401)" fill="#fff"/>
    <path id="Path_677" data-name="Path 677" d="M98.252,55.179H95.186l-1.672-5.3H87.66l-1.533,5.3H83.2L89.054,37.2h3.624Zm-5.3-7.526-1.533-4.739c-.139-.418-.418-1.672-.976-3.345h0c-.139.7-.418,1.951-.836,3.345l-1.533,4.739Z" transform="translate(4859.156 -126.834)" fill="#fff"/>
    <path id="Path_678" data-name="Path 678" d="M108.244,47.251a7.421,7.421,0,0,1-1.812,5.3,5.361,5.361,0,0,1-4.042,1.673,3.794,3.794,0,0,1-3.624-1.812h0v6.829H95.839V45.3c0-1.394,0-2.787-.139-4.321h2.509l.139,2.091h0a4.8,4.8,0,0,1,4.321-2.369,4.5,4.5,0,0,1,3.763,1.812A5.905,5.905,0,0,1,108.244,47.251Zm-2.927,0a5.007,5.007,0,0,0-.836-3.066,2.814,2.814,0,0,0-2.509-1.254,3.33,3.33,0,0,0-1.951.7,3.1,3.1,0,0,0-1.115,1.812,2.452,2.452,0,0,0-.139.836V48.5a3.517,3.517,0,0,0,.836,2.369,2.773,2.773,0,0,0,2.23.976,2.814,2.814,0,0,0,2.509-1.254A5.035,5.035,0,0,0,105.317,47.251Z" transform="translate(4864.078 -125.456)" fill="#fff"/>
    <path id="Path_679" data-name="Path 679" d="M118.944,47.251a7.421,7.421,0,0,1-1.812,5.3,5.361,5.361,0,0,1-4.042,1.673,3.794,3.794,0,0,1-3.624-1.812h0v6.829h-2.927V45.3c0-1.394,0-2.787-.139-4.321h2.509l.139,2.091h0a4.8,4.8,0,0,1,4.321-2.369,4.5,4.5,0,0,1,3.763,1.812A5.905,5.905,0,0,1,118.944,47.251Zm-2.927,0a5.007,5.007,0,0,0-.836-3.066,2.814,2.814,0,0,0-2.509-1.254,3.33,3.33,0,0,0-1.951.7,3.1,3.1,0,0,0-1.115,1.812,2.452,2.452,0,0,0-.139.836V48.5a3.517,3.517,0,0,0,.836,2.369,2.773,2.773,0,0,0,2.23.976,2.814,2.814,0,0,0,2.509-1.254A5.035,5.035,0,0,0,116.017,47.251Z" transform="translate(4868.291 -125.456)" fill="#fff"/>
    <path id="Path_680" data-name="Path 680" d="M130.511,50.2a5.147,5.147,0,0,1-1.533,3.763c-1.115,1.115-2.787,1.533-4.878,1.533a8.617,8.617,0,0,1-4.6-1.115l.7-2.369a8.514,8.514,0,0,0,4.181,1.115,4.138,4.138,0,0,0,2.509-.7,2.531,2.531,0,0,0,.836-1.951,2.65,2.65,0,0,0-.7-1.812,6.985,6.985,0,0,0-2.509-1.394c-3.206-1.115-4.739-2.927-4.739-5.157a4.5,4.5,0,0,1,1.672-3.624,6.348,6.348,0,0,1,4.46-1.394,8.69,8.69,0,0,1,4.042.836l-.7,2.369a6.789,6.789,0,0,0-3.484-.836,3.986,3.986,0,0,0-2.369.7,2.308,2.308,0,0,0-.7,1.672,2.453,2.453,0,0,0,.836,1.812,10.813,10.813,0,0,0,2.648,1.394,9.4,9.4,0,0,1,3.484,2.23A5.61,5.61,0,0,1,130.511,50.2Z" transform="translate(4873.449 -126.873)" fill="#fff"/>
    <path id="Path_681" data-name="Path 681" d="M136.444,43.936h-3.206v6.272c0,1.533.557,2.369,1.673,2.369a3.094,3.094,0,0,0,1.254-.139l.139,2.23a5.107,5.107,0,0,1-2.23.279,3.278,3.278,0,0,1-2.648-.976c-.7-.7-.976-1.812-.976-3.484V43.936H128.5v-2.23h1.951V39.336l2.787-.836v3.206h3.206Z" transform="translate(4876.993 -126.322)" fill="#fff"/>
    <path id="Path_682" data-name="Path 682" d="M148.083,47.29a7.149,7.149,0,0,1-1.672,4.878,6.406,6.406,0,0,1-4.739,1.951,5.886,5.886,0,0,1-4.6-1.951,6.788,6.788,0,0,1-1.672-4.739,6.623,6.623,0,0,1,1.812-4.878,6.189,6.189,0,0,1,4.739-1.951,5.886,5.886,0,0,1,4.6,1.951A7.43,7.43,0,0,1,148.083,47.29Zm-3.066.139a5.3,5.3,0,0,0-.836-3.066,3.054,3.054,0,0,0-5.3,0,5.619,5.619,0,0,0-.836,3.066,5.3,5.3,0,0,0,.836,3.066,2.988,2.988,0,0,0,2.648,1.533,3.157,3.157,0,0,0,2.648-1.533A5.619,5.619,0,0,0,145.017,47.429Z" transform="translate(4879.709 -125.495)" fill="#fff"/>
    <path id="Path_683" data-name="Path 683" d="M153.208,43.427c-.279,0-.557-.139-.976-.139a2.977,2.977,0,0,0-2.369,1.115,4.813,4.813,0,0,0-.7,2.509v6.829h-2.927v-8.92a36.546,36.546,0,0,0-.139-4.042h2.509l.139,2.509h.139a5.513,5.513,0,0,1,1.394-2.091,4.147,4.147,0,0,1,2.091-.7h.7v2.927Z" transform="translate(4883.922 -125.534)" fill="#fff"/>
    <path id="Path_684" data-name="Path 684" d="M163.668,46.732a3.093,3.093,0,0,1-.139,1.254h-8.641a3.6,3.6,0,0,0,1.254,2.927,4.489,4.489,0,0,0,2.787.976,9.152,9.152,0,0,0,3.484-.558l.418,1.951a10.39,10.39,0,0,1-4.321.836,6.1,6.1,0,0,1-4.739-1.812,6.557,6.557,0,0,1-1.673-4.739,7.839,7.839,0,0,1,1.533-4.878,5.568,5.568,0,0,1,4.6-2.091,4.638,4.638,0,0,1,4.181,2.091A5.851,5.851,0,0,1,163.668,46.732Zm-2.648-.7a4.09,4.09,0,0,0-.557-2.23,2.511,2.511,0,0,0-2.23-1.254A2.708,2.708,0,0,0,156,43.666a5.322,5.322,0,0,0-.836,2.23h5.854Z" transform="translate(4886.285 -125.495)" fill="#fff"/>
    <path id="Path_685" data-name="Path 685" d="M91.647,30.481A4.533,4.533,0,0,1,90.254,34.1a5.768,5.768,0,0,1-3.763,1.115,9.229,9.229,0,0,1-2.091-.139V26.439a13.551,13.551,0,0,1,2.509-.139,5.194,5.194,0,0,1,3.484.976A4.514,4.514,0,0,1,91.647,30.481Zm-1.533,0a2.912,2.912,0,0,0-3.206-3.206,2.717,2.717,0,0,0-1.115.139v6.551h.976a3.407,3.407,0,0,0,2.509-.836A3.773,3.773,0,0,0,90.114,30.481Z" transform="translate(4859.628 -131.126)" fill="#fff"/>
    <path id="Path_686" data-name="Path 686" d="M96.972,31.245a3.278,3.278,0,0,1-.836,2.369,2.871,2.871,0,0,1-2.369.976,2.6,2.6,0,0,1-2.23-.976,3.278,3.278,0,0,1-.836-2.369,3.278,3.278,0,0,1,.836-2.369,2.871,2.871,0,0,1,2.369-.976,2.6,2.6,0,0,1,2.23.976A3.278,3.278,0,0,1,96.972,31.245Zm-1.394,0a2.809,2.809,0,0,0-.418-1.533,1.219,1.219,0,0,0-1.254-.7,1.464,1.464,0,0,0-1.254.7,3.02,3.02,0,0,0,0,3.066,1.219,1.219,0,0,0,1.254.7,1.339,1.339,0,0,0,1.254-.836A2.081,2.081,0,0,0,95.578,31.245Z" transform="translate(4862.109 -130.496)" fill="#fff"/>
    <path id="Path_687" data-name="Path 687" d="M105.538,28l-1.951,6.411h-1.254l-.836-2.787a11.611,11.611,0,0,1-.557-2.091h0a11.61,11.61,0,0,1-.558,2.091l-.836,2.787H98.291L96.2,28h1.394l.7,3.066.418,2.091h0c.139-.557.279-1.254.557-2.091L100.1,28h1.115l.836,2.927a11.611,11.611,0,0,1,.558,2.091h0l.418-2.091L103.866,28Z" transform="translate(4864.274 -130.456)" fill="#fff"/>
    <path id="Path_688" data-name="Path 688" d="M109.636,34.49h-1.394V30.866q0-1.672-1.254-1.672a1.265,1.265,0,0,0-.976.418,1.583,1.583,0,0,0-.418,1.115V34.49H104.2V28.079h1.254v.976h0a3.7,3.7,0,0,1,.7-.836,2.248,2.248,0,0,1,1.254-.418,2.1,2.1,0,0,1,1.533.557,2.4,2.4,0,0,1,.7,2.091Z" transform="translate(4867.424 -130.535)" fill="#fff"/>
    <path id="Path_689" data-name="Path 689" d="M111.294,35.238H109.9V25.9h1.394Z" transform="translate(4869.669 -131.283)" fill="#fff"/>
    <path id="Path_690" data-name="Path 690" d="M118.672,31.245a3.278,3.278,0,0,1-.836,2.369,2.871,2.871,0,0,1-2.369.976,2.6,2.6,0,0,1-2.23-.976,3.278,3.278,0,0,1-.836-2.369,3.278,3.278,0,0,1,.836-2.369,3.362,3.362,0,0,1,2.369-.976,2.6,2.6,0,0,1,2.23.976A3.278,3.278,0,0,1,118.672,31.245Zm-1.394,0a2.81,2.81,0,0,0-.418-1.533,1.219,1.219,0,0,0-1.254-.7,1.464,1.464,0,0,0-1.254.7,3.02,3.02,0,0,0,0,3.066,1.219,1.219,0,0,0,1.254.7,1.339,1.339,0,0,0,1.254-.836A2.081,2.081,0,0,0,117.278,31.245Z" transform="translate(4870.653 -130.496)" fill="#fff"/>
    <path id="Path_691" data-name="Path 691" d="M123.257,34.451H122l-.139-.7h0a2.247,2.247,0,0,1-1.812.836,1.616,1.616,0,0,1-1.394-.557,2.5,2.5,0,0,1-.557-1.254,1.891,1.891,0,0,1,.976-1.812,5.209,5.209,0,0,1,2.787-.557v-.139a1.109,1.109,0,0,0-1.254-1.254,3.311,3.311,0,0,0-1.672.418l-.279-.976a3.536,3.536,0,0,1,2.23-.557c1.672,0,2.509.836,2.509,2.648v2.369A6.839,6.839,0,0,0,123.257,34.451Zm-1.394-2.23v-.976c-1.533,0-2.369.418-2.369,1.254a.953.953,0,0,0,.976.976,1.981,1.981,0,0,0,.836-.279,1.391,1.391,0,0,0,.558-.7Z" transform="translate(4872.897 -130.496)" fill="#fff"/>
    <path id="Path_692" data-name="Path 692" d="M129.293,35.2h-1.254v-.976h0a2.057,2.057,0,0,1-2.091,1.115A2.531,2.531,0,0,1,124,34.5a3.221,3.221,0,0,1-.7-2.369,3.891,3.891,0,0,1,.836-2.509,2.752,2.752,0,0,1,1.951-.836,2.071,2.071,0,0,1,1.812.836h0V26h1.394v9.2ZM127.9,32.551V31.017a2.916,2.916,0,0,0-.557-.836,1.176,1.176,0,0,0-.976-.279,1.464,1.464,0,0,0-1.254.7,2.972,2.972,0,0,0-.418,1.672,2.5,2.5,0,0,0,.418,1.533,1.464,1.464,0,0,0,1.254.7,1.268,1.268,0,0,0,1.115-.557A3.116,3.116,0,0,0,127.9,32.551Z" transform="translate(4874.945 -131.244)" fill="#fff"/>
    <path id="Path_693" data-name="Path 693" d="M138.072,31.245a3.278,3.278,0,0,1-.836,2.369,2.871,2.871,0,0,1-2.369.976,2.6,2.6,0,0,1-2.23-.976,3.278,3.278,0,0,1-.836-2.369,3.278,3.278,0,0,1,.836-2.369,2.871,2.871,0,0,1,2.369-.976,2.6,2.6,0,0,1,2.23.976A3.278,3.278,0,0,1,138.072,31.245Zm-1.533,0a2.81,2.81,0,0,0-.418-1.533,1.219,1.219,0,0,0-1.254-.7,1.464,1.464,0,0,0-1.254.7,3.02,3.02,0,0,0,0,3.066,1.219,1.219,0,0,0,1.254.7,1.339,1.339,0,0,0,1.254-.836A2.081,2.081,0,0,0,136.539,31.245Z" transform="translate(4878.292 -130.496)" fill="#fff"/>
    <path id="Path_694" data-name="Path 694" d="M143.336,34.49h-1.394V30.866q0-1.672-1.254-1.672a1.265,1.265,0,0,0-.976.418,1.583,1.583,0,0,0-.418,1.115V34.49H137.9V28.079h1.254v.976h0a3.7,3.7,0,0,1,.7-.836,2.248,2.248,0,0,1,1.254-.418,2.1,2.1,0,0,1,1.533.557,2.4,2.4,0,0,1,.7,2.091Z" transform="translate(4880.694 -130.535)" fill="#fff"/>
    <path id="Path_695" data-name="Path 695" d="M149.663,29.548H148.13v3.066c0,.836.279,1.115.836,1.115h.7v1.115a2.717,2.717,0,0,1-1.115.139,1.359,1.359,0,0,1-1.254-.557,2.679,2.679,0,0,1-.418-1.672V29.548H145.9V28.433h.976V27.318l1.394-.418v1.533H149.8v1.115Z" transform="translate(4883.844 -130.889)" fill="#fff"/>
    <path id="Path_696" data-name="Path 696" d="M155.536,35.238h-1.394V31.614q0-1.672-1.254-1.672a1.342,1.342,0,0,0-1.394.976v4.321H150.1V25.9h1.394v3.9h0a2.224,2.224,0,0,1,1.951-1.115,1.616,1.616,0,0,1,1.394.557,3.137,3.137,0,0,1,.7,2.091Z" transform="translate(4885.498 -131.283)" fill="#fff"/>
    <path id="Path_697" data-name="Path 697" d="M161.075,30.927v.7h-4.181a1.858,1.858,0,0,0,.557,1.394,2.355,2.355,0,0,0,1.394.418,5.2,5.2,0,0,0,1.673-.279l.279.976a4.654,4.654,0,0,1-2.091.418,3.357,3.357,0,0,1-2.369-5.575,2.6,2.6,0,0,1,2.23-.976,2.2,2.2,0,0,1,2.091.976A3.691,3.691,0,0,1,161.075,30.927Zm-1.254-.418a2.626,2.626,0,0,0-.279-1.115,1.131,1.131,0,0,0-1.115-.557,1.268,1.268,0,0,0-1.115.557,1.583,1.583,0,0,0-.418,1.115Z" transform="translate(4887.624 -130.456)" fill="#fff"/>
  </g>
</svg>
