<svg xmlns="http://www.w3.org/2000/svg" width="258.746" height="86.771" viewBox="0 0 258.746 86.771">
  <g id="Group_2974" data-name="Group 2974" transform="translate(1 1)">
    <g id="Group_2974-2" data-name="Group 2974">
      <g id="Group_2973" data-name="Group 2973">
        <path id="Path_674" data-name="Path 674" d="M292.925,103.771H52.223A8.283,8.283,0,0,1,44.2,95.294V27.477A8.283,8.283,0,0,1,52.223,19h240.7a8.283,8.283,0,0,1,8.023,8.477V95.294A8.284,8.284,0,0,1,292.925,103.771Z" transform="translate(-44.2 -19)" fill="none" stroke="#003d6f" stroke-width="2"/>
        <path id="Path_675" data-name="Path 675" d="M88.056,46.063a11.63,11.63,0,0,1,5.416-9.428,12.5,12.5,0,0,0-9.027-5.014c-3.811-.4-7.628,2.206-9.428,2.206-2.006,0-5.014-2.206-8.223-2.206a11.916,11.916,0,0,0-10.23,6.219c-4.413,7.628-1.2,18.853,3.009,25.073,2.206,3.009,4.614,6.419,7.823,6.219s4.413-2.006,8.223-2.006,4.814,2.006,8.223,2.006,5.613-3.009,7.628-6.017a22.992,22.992,0,0,0,3.409-7.02C94.677,55.893,88.056,53.485,88.056,46.063Z" transform="translate(-33.896 -3.665)" fill="#003d6f"/>
        <path id="Path_676" data-name="Path 676" d="M71.744,33.623A12.439,12.439,0,0,0,74.352,25.6a10.742,10.742,0,0,0-7.22,3.811,10.143,10.143,0,0,0-2.608,7.628,9.527,9.527,0,0,0,7.22-3.416Z" transform="translate(-23.805 -11.488)" fill="#003d6f"/>
        <path id="Path_677" data-name="Path 677" d="M104.863,63.075H100.45l-2.406-7.628H89.619l-2.206,7.628H83.2L91.625,37.2h5.216ZM97.235,52.244l-2.206-6.82c-.2-.6-.6-2.406-1.4-4.814h0c-.2,1.007-.6,2.808-1.2,4.814l-2.206,6.82Z" transform="translate(-4.972 2.353)" fill="#003d6f"/>
        <path id="Path_678" data-name="Path 678" d="M113.753,50.129a10.68,10.68,0,0,1-2.608,7.628,7.715,7.715,0,0,1-5.817,2.408,5.46,5.46,0,0,1-5.216-2.608h0v9.828H95.9V47.321c0-2.006,0-4.011-.2-6.219h3.611l.2,3.009h0A6.908,6.908,0,0,1,105.73,40.7a6.476,6.476,0,0,1,5.416,2.608,8.5,8.5,0,0,1,2.608,6.819Zm-4.212,0a7.206,7.206,0,0,0-1.2-4.413,4.05,4.05,0,0,0-3.611-1.8,4.792,4.792,0,0,0-2.808,1.007,4.461,4.461,0,0,0-1.6,2.608,3.529,3.529,0,0,0-.2,1.2v3.2a5.062,5.062,0,0,0,1.2,3.409,3.991,3.991,0,0,0,3.209,1.4,4.05,4.05,0,0,0,3.611-1.8,7.246,7.246,0,0,0,1.4-4.807Z" transform="translate(7.602 7.362)" fill="#003d6f"/>
        <path id="Path_679" data-name="Path 679" d="M124.453,50.129a10.68,10.68,0,0,1-2.608,7.628,7.715,7.715,0,0,1-5.817,2.408,5.46,5.46,0,0,1-5.216-2.608h0v9.828H106.6V47.321c0-2.006,0-4.011-.2-6.219h3.611l.2,3.009h0A6.908,6.908,0,0,1,116.43,40.7a6.476,6.476,0,0,1,5.416,2.608A8.5,8.5,0,0,1,124.453,50.129Zm-4.212,0a7.206,7.206,0,0,0-1.2-4.413,4.05,4.05,0,0,0-3.611-1.8,4.792,4.792,0,0,0-2.808,1.007,4.461,4.461,0,0,0-1.6,2.608,3.529,3.529,0,0,0-.2,1.2v3.2a5.062,5.062,0,0,0,1.2,3.409,3.991,3.991,0,0,0,3.209,1.4,4.05,4.05,0,0,0,3.611-1.8,7.246,7.246,0,0,0,1.4-4.807Z" transform="translate(18.364 7.362)" fill="#003d6f"/>
        <path id="Path_680" data-name="Path 680" d="M135.347,55.963a7.407,7.407,0,0,1-2.206,5.416c-1.6,1.6-4.011,2.206-7.02,2.206a12.4,12.4,0,0,1-6.62-1.6l1.007-3.409a12.253,12.253,0,0,0,6.017,1.6,5.955,5.955,0,0,0,3.611-1.007,3.642,3.642,0,0,0,1.2-2.808,3.814,3.814,0,0,0-1.007-2.608,10.053,10.053,0,0,0-3.611-2.006c-4.614-1.6-6.82-4.212-6.82-7.422a6.476,6.476,0,0,1,2.406-5.216,9.136,9.136,0,0,1,6.419-2.006,12.507,12.507,0,0,1,5.817,1.2l-1.007,3.409a9.771,9.771,0,0,0-5.014-1.2,5.737,5.737,0,0,0-3.409,1.007,3.322,3.322,0,0,0-1.007,2.406,3.53,3.53,0,0,0,1.2,2.608,15.563,15.563,0,0,0,3.811,2.006,13.528,13.528,0,0,1,5.014,3.209,8.074,8.074,0,0,1,1.219,4.215Z" transform="translate(31.541 2.259)" fill="#003d6f"/>
        <path id="Path_681" data-name="Path 681" d="M139.933,46.323h-4.614V55.35c0,2.206.8,3.409,2.408,3.409a4.453,4.453,0,0,0,1.8-.2l.2,3.209a7.35,7.35,0,0,1-3.209.4,4.718,4.718,0,0,1-3.811-1.4c-1.007-1.007-1.4-2.608-1.4-5.014V46.323H128.5V43.114h2.808V39.7l4.011-1.2v4.614h4.614Z" transform="translate(40.594 3.753)" fill="#003d6f"/>
        <path id="Path_682" data-name="Path 682" d="M153.656,50.23a10.289,10.289,0,0,1-2.406,7.02,9.219,9.219,0,0,1-6.82,2.808,8.471,8.471,0,0,1-6.62-2.808,9.769,9.769,0,0,1-2.406-6.82,9.532,9.532,0,0,1,2.608-7.02,8.907,8.907,0,0,1,6.82-2.808,8.471,8.471,0,0,1,6.62,2.808,10.693,10.693,0,0,1,2.2,6.82Zm-4.413.2a7.627,7.627,0,0,0-1.2-4.413,4.4,4.4,0,0,0-7.628,0,8.087,8.087,0,0,0-1.2,4.413,7.628,7.628,0,0,0,1.2,4.413,4.3,4.3,0,0,0,3.811,2.206,4.543,4.543,0,0,0,3.811-2.206,8.087,8.087,0,0,0,1.207-4.413Z" transform="translate(47.529 5.959)" fill="#003d6f"/>
        <path id="Path_683" data-name="Path 683" d="M156.331,44.714c-.4,0-.8-.2-1.4-.2a4.284,4.284,0,0,0-3.409,1.6,6.927,6.927,0,0,0-1.007,3.611v9.828H146.3V46.72a52.593,52.593,0,0,0-.2-5.817h3.611l.2,3.611h.2a7.934,7.934,0,0,1,2.006-3.009,5.968,5.968,0,0,1,3.009-1.007h1.007V44.71Z" transform="translate(58.294 5.823)" fill="#003d6f"/>
        <path id="Path_684" data-name="Path 684" d="M168.754,49.43a4.452,4.452,0,0,1-.2,1.8H156.117a5.181,5.181,0,0,0,1.8,4.212,6.46,6.46,0,0,0,4.011,1.4,13.172,13.172,0,0,0,5.014-.8l.6,2.808a14.953,14.953,0,0,1-6.219,1.2,8.779,8.779,0,0,1-6.82-2.608,9.437,9.437,0,0,1-2.408-6.82A11.282,11.282,0,0,1,154.3,43.6a8.013,8.013,0,0,1,6.62-3.009,6.675,6.675,0,0,1,6.017,3.009,8.421,8.421,0,0,1,1.808,5.819Zm-3.811-1.007a5.886,5.886,0,0,0-.8-3.209,3.614,3.614,0,0,0-3.209-1.8,3.9,3.9,0,0,0-3.214,1.609,7.659,7.659,0,0,0-1.2,3.209h8.425Z" transform="translate(64.326 5.955)" fill="#003d6f"/>
        <path id="Path_685" data-name="Path 685" d="M94.83,32.325a6.524,6.524,0,0,1-2,5.208,8.3,8.3,0,0,1-5.416,1.6,13.282,13.282,0,0,1-3.009-.2V26.508a19.5,19.5,0,0,1,3.611-.2,7.475,7.475,0,0,1,5.014,1.4,6.5,6.5,0,0,1,1.8,4.613Zm-2.206,0a4.191,4.191,0,0,0-4.614-4.614,3.91,3.91,0,0,0-1.6.2v9.428h1.4a4.9,4.9,0,0,0,3.611-1.2,5.43,5.43,0,0,0,1.2-3.811Z" transform="translate(-3.765 -10.682)" fill="#003d6f"/>
        <path id="Path_686" data-name="Path 686" d="M99.728,32.717a4.718,4.718,0,0,1-1.2,3.409,4.132,4.132,0,0,1-3.409,1.4,3.742,3.742,0,0,1-3.209-1.4,4.718,4.718,0,0,1-1.2-3.409,4.718,4.718,0,0,1,1.2-3.409,4.132,4.132,0,0,1,3.409-1.4,3.742,3.742,0,0,1,3.209,1.4A4.718,4.718,0,0,1,99.728,32.717Zm-2.006,0a4.042,4.042,0,0,0-.6-2.206,1.754,1.754,0,0,0-1.8-1.007,2.107,2.107,0,0,0-1.8,1.007,4.346,4.346,0,0,0,0,4.413,1.754,1.754,0,0,0,1.8,1.007,1.927,1.927,0,0,0,1.8-1.2,3,3,0,0,0,.6-2.011Z" transform="translate(2.57 -8.905)" fill="#003d6f"/>
        <path id="Path_687" data-name="Path 687" d="M109.639,28l-2.808,9.227h-1.8l-1.2-4.011a16.712,16.712,0,0,1-.8-3.009h0a16.709,16.709,0,0,1-.8,3.009l-1.2,4.011H99.209L96.2,28h2.006l1.007,4.413.6,3.009h0c.2-.8.4-1.8.8-3.009l1.2-4.413h1.6l1.2,4.212a16.708,16.708,0,0,1,.8,3.009h0l.6-3.009L107.233,28Z" transform="translate(8.103 -8.794)" fill="#003d6f"/>
        <path id="Path_688" data-name="Path 688" d="M112.023,37.429h-2.006V32.213q0-2.406-1.8-2.406a1.821,1.821,0,0,0-1.4.6,2.278,2.278,0,0,0-.6,1.6v5.416H104.2V28.2H106v1.4h0a5.324,5.324,0,0,1,1.007-1.2,3.235,3.235,0,0,1,1.8-.6,3.022,3.022,0,0,1,2.206.8,3.454,3.454,0,0,1,1.007,3.009Z" transform="translate(16.15 -9.015)" fill="#003d6f"/>
        <path id="Path_689" data-name="Path 689" d="M111.906,39.339H109.9V25.9h2.006Z" transform="translate(21.884 -11.12)" fill="#003d6f"/>
        <path id="Path_690" data-name="Path 690" d="M121.428,32.717a4.718,4.718,0,0,1-1.2,3.409,4.132,4.132,0,0,1-3.409,1.4,3.742,3.742,0,0,1-3.209-1.4,4.717,4.717,0,0,1-1.2-3.409,4.718,4.718,0,0,1,1.2-3.409,4.839,4.839,0,0,1,3.409-1.4,3.742,3.742,0,0,1,3.209,1.4,4.718,4.718,0,0,1,1.2,3.409Zm-2.006,0a4.044,4.044,0,0,0-.6-2.206,1.754,1.754,0,0,0-1.8-1.007,2.107,2.107,0,0,0-1.8,1.007,4.346,4.346,0,0,0,0,4.413,1.754,1.754,0,0,0,1.8,1.007,1.927,1.927,0,0,0,1.8-1.2A3,3,0,0,0,119.422,32.717Z" transform="translate(24.397 -8.905)" fill="#003d6f"/>
        <path id="Path_691" data-name="Path 691" d="M125.525,37.334h-1.809l-.2-1.007h0a3.234,3.234,0,0,1-2.608,1.2,2.326,2.326,0,0,1-2.006-.8,3.6,3.6,0,0,1-.8-1.8,2.721,2.721,0,0,1,1.4-2.608,7.5,7.5,0,0,1,4.011-.8v-.2a1.6,1.6,0,0,0-1.8-1.8,4.765,4.765,0,0,0-2.406.6l-.4-1.4a5.089,5.089,0,0,1,3.209-.8c2.406,0,3.611,1.2,3.611,3.811v3.409a9.843,9.843,0,0,0-.2,2.195Zm-2.006-3.209v-1.4c-2.206,0-3.409.6-3.409,1.8a1.372,1.372,0,0,0,1.4,1.4,2.851,2.851,0,0,0,1.2-.4,2,2,0,0,0,.8-1.007Z" transform="translate(30.128 -8.908)" fill="#003d6f"/>
        <path id="Path_692" data-name="Path 692" d="M131.933,39.24h-1.8v-1.4h0a2.96,2.96,0,0,1-3.009,1.6,3.643,3.643,0,0,1-2.8-1.207,4.636,4.636,0,0,1-1.007-3.409,5.6,5.6,0,0,1,1.2-3.611,3.961,3.961,0,0,1,2.808-1.2,2.981,2.981,0,0,1,2.608,1.2h0V26h2.006Zm-2-3.812V33.22a4.2,4.2,0,0,0-.8-1.2,1.693,1.693,0,0,0-1.4-.4,2.107,2.107,0,0,0-1.8,1.007,4.277,4.277,0,0,0-.6,2.406,3.6,3.6,0,0,0,.6,2.206,2.107,2.107,0,0,0,1.8,1.007,1.825,1.825,0,0,0,1.6-.8,4.484,4.484,0,0,0,.6-2.013Z" transform="translate(35.354 -11.005)" fill="#003d6f"/>
        <path id="Path_693" data-name="Path 693" d="M140.828,32.717a4.718,4.718,0,0,1-1.2,3.409,4.132,4.132,0,0,1-3.409,1.4,3.742,3.742,0,0,1-3.209-1.4,4.718,4.718,0,0,1-1.2-3.409,4.718,4.718,0,0,1,1.2-3.409,4.132,4.132,0,0,1,3.409-1.4,3.742,3.742,0,0,1,3.209,1.4A4.718,4.718,0,0,1,140.828,32.717Zm-2.206,0a4.044,4.044,0,0,0-.6-2.206,1.754,1.754,0,0,0-1.8-1.007,2.107,2.107,0,0,0-1.8,1.007,4.346,4.346,0,0,0,0,4.413,1.754,1.754,0,0,0,1.8,1.007,1.927,1.927,0,0,0,1.8-1.2,3,3,0,0,0,.6-2.011Z" transform="translate(43.911 -8.905)" fill="#003d6f"/>
        <path id="Path_694" data-name="Path 694" d="M145.723,37.429h-2.006V32.213q0-2.406-1.8-2.406a1.821,1.821,0,0,0-1.4.6,2.278,2.278,0,0,0-.6,1.6v5.416H137.9V28.2h1.8v1.4h0a5.325,5.325,0,0,1,1.007-1.2,3.235,3.235,0,0,1,1.8-.6,3.022,3.022,0,0,1,2.206.8,3.454,3.454,0,0,1,1.007,3.009Z" transform="translate(50.048 -9.015)" fill="#003d6f"/>
        <path id="Path_695" data-name="Path 695" d="M151.316,30.711H149.11v4.413c0,1.2.4,1.6,1.2,1.6h1.007v1.6a3.91,3.91,0,0,1-1.6.2,1.956,1.956,0,0,1-1.8-.8,3.856,3.856,0,0,1-.6-2.406V30.711H145.9v-1.6h1.4V27.5l2.006-.6v2.206h2.2v1.6Z" transform="translate(58.096 -10.005)" fill="#003d6f"/>
        <path id="Path_696" data-name="Path 696" d="M157.923,39.339h-2.006V34.123q0-2.406-1.8-2.406a1.931,1.931,0,0,0-2.006,1.4V39.34H150.1V25.9h2.006v5.613h0a3.2,3.2,0,0,1,2.808-1.6,2.326,2.326,0,0,1,2.006.8,4.515,4.515,0,0,1,1.007,3.009Z" transform="translate(62.32 -11.12)" fill="#003d6f"/>
        <path id="Path_697" data-name="Path 697" d="M163.525,32.218v1.007h-6.017a2.674,2.674,0,0,0,.8,2.006,3.389,3.389,0,0,0,2.006.6,7.484,7.484,0,0,0,2.408-.4l.4,1.4a6.7,6.7,0,0,1-3.009.6,4.831,4.831,0,0,1-3.409-8.023,3.742,3.742,0,0,1,3.209-1.4,3.166,3.166,0,0,1,3.009,1.4,5.312,5.312,0,0,1,.6,2.8Zm-1.8-.6a3.78,3.78,0,0,0-.4-1.6,1.628,1.628,0,0,0-1.6-.8,1.825,1.825,0,0,0-1.6.8,2.278,2.278,0,0,0-.6,1.6Z" transform="translate(67.75 -8.796)" fill="#003d6f"/>
      </g>
    </g>
  </g>
</svg>
