<svg xmlns="http://www.w3.org/2000/svg" width="258.746" height="86.771" viewBox="0 0 258.746 86.771">
  <g id="Group_2975" data-name="Group 2975" transform="translate(1 1)">
    <g id="Group_2973" data-name="Group 2973" transform="translate(18.81 17.28)">
      <path id="Path_2361" data-name="Path 2361" d="M400.966,299.528a3.85,3.85,0,0,0-.863,2.683v42.024a3.664,3.664,0,0,0,.887,2.658l.144.128,23.544-23.544v-.527L401.11,299.4Z" transform="translate(-400.094 -298.77)" fill="rgba(0,0,0,0)" stroke="#003d6f" stroke-width="2" fill-rule="evenodd"/>
      <path id="Path_2364" data-name="Path 2364" d="M926.152,646.755,918.3,638.9v-.55l7.852-7.852.171.1,9.288,5.279c2.658,1.5,2.658,3.971,0,5.488l-9.288,5.279Z" transform="translate(-893.732 -614.178)" fill="rgba(0,0,0,0)" stroke="#003d6f" stroke-width="2" fill-rule="evenodd"/>
      <path id="Path_2363" data-name="Path 2363" d="M450.114,810.023,442.09,802,418.4,825.69a3.11,3.11,0,0,0,3.948.128l27.766-15.795" transform="translate(-417.523 -777.551)" fill="rgba(0,0,0,0)" stroke="#003d6f" stroke-width="2" fill-rule="evenodd"/>
      <path id="Path_2362" data-name="Path 2362" d="M450.114,302.894l-27.766-15.772a3.078,3.078,0,0,0-3.948.128l23.69,23.667Z" transform="translate(-417.523 -286.468)" fill="rgba(0,0,0,0)" stroke="#003d6f" stroke-width="2" fill-rule="evenodd"/>
    </g>
    <path id="Path_674" data-name="Path 674" d="M292.925,103.771H52.223A8.283,8.283,0,0,1,44.2,95.294V27.477A8.283,8.283,0,0,1,52.223,19h240.7a8.283,8.283,0,0,1,8.023,8.477V95.294A8.284,8.284,0,0,1,292.925,103.771Z" transform="translate(-44.2 -19)" fill="none" stroke="#003d6f" stroke-width="2"/>
    <g id="Group_2973-2" data-name="Group 2973" transform="translate(77.692 17.197)">
      <path id="Path_2359" data-name="Path 2359" d="M1711.62,283.589a5.782,5.782,0,0,1-4.318-1.786,6.084,6.084,0,0,1-1.744-4.361,5.947,5.947,0,0,1,1.744-4.355,5.766,5.766,0,0,1,4.318-1.786,5.845,5.845,0,0,1,4.318,1.786,6.311,6.311,0,0,1,0,8.71A5.737,5.737,0,0,1,1711.62,283.589Zm-51.187,0a6,6,0,0,1-4.336-1.763,6.142,6.142,0,0,1,4.336-10.52,6.044,6.044,0,0,1,2.422.5,4.894,4.894,0,0,1,1.843,1.317l.114.144-1.284,1.261-.133-.157a3.651,3.651,0,0,0-2.98-1.284,4.12,4.12,0,0,0-2.972,1.213,4.6,4.6,0,0,0,0,6.312,4.345,4.345,0,0,0,6.023,0,3.282,3.282,0,0,0,.872-1.976h-4.117v-1.773h5.886l.023.161a6.432,6.432,0,0,1,.085.891,5.334,5.334,0,0,1-1.469,3.933,5.734,5.734,0,0,1-4.318,1.738Zm68.059-.252h-1.815l-5.559-8.9.047,1.6v7.289h-1.815v-11.77h2.071l.057.091,5.227,8.379-.048-1.6v-6.872h1.834Zm-30.51,0h-1.839V273.328h-3.189v-1.773h8.214v1.773h-3.189v10.009Zm-6.525,0h-1.833V271.556h1.833Zm-10.307,0h-1.833V273.328h-3.189v-1.773h8.213v1.773h-3.189Zm-6.188-.019h-7.033V271.556h7.033v1.773h-5.194v3.232h4.687v1.753h-4.687v3.232h5.194Zm33.685-2.734a4.058,4.058,0,0,0,2.972,1.232,3.955,3.955,0,0,0,2.972-1.232,4.67,4.67,0,0,0,0-6.275,4.066,4.066,0,0,0-2.972-1.232,3.938,3.938,0,0,0-2.966,1.232,4.676,4.676,0,0,0-.01,6.275Z" transform="translate(-1654.152 -271.299)" fill="#003d6f"/>
      <path id="Path_2360" data-name="Path 2360" d="M1698.08,691.978a8.085,8.085,0,1,0,8.108,8.085,7.958,7.958,0,0,0-8.108-8.085Zm0,12.966a4.913,4.913,0,1,1,4.559-4.893,4.679,4.679,0,0,1-4.559,4.893Zm-17.692-12.966a8.085,8.085,0,1,0,8.109,8.085,7.959,7.959,0,0,0-8.1-8.085Zm0,12.966a4.913,4.913,0,1,1,4.559-4.893,4.679,4.679,0,0,1-4.555,4.893Zm-21.051-10.5v3.421h8.214a7.215,7.215,0,0,1-1.858,4.307,8.379,8.379,0,0,1-6.332,2.511,9.124,9.124,0,1,1,0-18.247,8.768,8.768,0,0,1,6.189,2.448l2.426-2.427a11.934,11.934,0,0,0-8.592-3.464,12.545,12.545,0,0,0,0,25.09,11.484,11.484,0,0,0,8.763-3.527,11.355,11.355,0,0,0,2.976-8.023,10.6,10.6,0,0,0-.188-2.133h-11.593v.043Zm86.1,2.664a7.513,7.513,0,0,0-6.924-5.151,7.681,7.681,0,0,0-7.628,8.085,7.9,7.9,0,0,0,8.023,8.085,8.025,8.025,0,0,0,6.734-3.588L1742.9,702.7a4.606,4.606,0,0,1-3.972,2.237A4.129,4.129,0,0,1,1735,702.49l10.81-4.479-.368-.908Zm-11.023,2.7a4.437,4.437,0,0,1,4.223-4.71,3.118,3.118,0,0,1,3,1.711Zm-8.779,7.833h3.549V683.9h-3.549Zm-5.83-13.871h-.128a5.6,5.6,0,0,0-4.266-1.815,8.085,8.085,0,0,0,0,16.156,5.586,5.586,0,0,0,4.266-1.839h.128v1.161c0,3.086-1.649,4.749-4.307,4.749a4.482,4.482,0,0,1-4.076-2.878l-3.086,1.3a7.717,7.717,0,0,0,7.156,4.772c4.161,0,7.687-2.447,7.687-8.426V692.443h-3.355v1.331Zm-4.076,11.169a4.916,4.916,0,0,1,0-9.8,4.545,4.545,0,0,1,4.307,4.919,4.488,4.488,0,0,1-4.3,4.877Zm46.33-21.051h-8.49v23.747h3.55V698.64h4.942a7.39,7.39,0,1,0,0-14.757Zm.1,11.44h-5.047v-8.157h5.047a4.077,4.077,0,1,1,0,8.152Zm21.919-3.4a6.685,6.685,0,0,0-6.332,3.63l3.147,1.308a3.375,3.375,0,0,1,3.233-1.753,3.428,3.428,0,0,1,3.742,3.061v.251a7.954,7.954,0,0,0-3.7-.91c-3.4,0-6.844,1.858-6.844,5.341a5.491,5.491,0,0,0,5.891,5.237,5,5,0,0,0,4.516-2.323h.128v1.835h3.422v-9.1c-.013-4.233-3.15-6.578-7.209-6.578Zm-.446,13.009c-1.161,0-2.786-.576-2.786-2.028,0-1.839,2.028-2.536,3.758-2.536a6.164,6.164,0,0,1,3.233.8,4.274,4.274,0,0,1-4.2,3.762Zm20.127-12.5-4.076,10.3h-.128l-4.222-10.3h-3.82l6.333,14.4-3.611,8h3.7l9.749-22.407Zm-31.95,15.2h3.549V683.9h-3.549Z" transform="translate(-1646.839 -663.49)" fill="#003d6f" fill-rule="evenodd"/>
    </g>
  </g>
</svg>
