<svg xmlns="http://www.w3.org/2000/svg" width="179.399" height="56.75" viewBox="0 0 179.399 56.75">
  <g id="Group_2975" data-name="Group 2975" transform="translate(-2714 -4844)">
    <g id="Group_2974" data-name="Group 2974" transform="translate(0 -2.024)">
      <path id="Path_2361" data-name="Path 2361" d="M400.7,299.489a2.675,2.675,0,0,0-.6,1.864v29.2a2.546,2.546,0,0,0,.616,1.847l.1.089,16.359-16.359v-.366L400.8,299.4Z" transform="translate(2327.476 4558.05)" fill="none" stroke="#fff" stroke-width="2" fill-rule="evenodd"/>
      <path id="Path_2364" data-name="Path 2364" d="M923.756,641.795l-5.456-5.456v-.382l5.456-5.456.119.073,6.454,3.668c1.847,1.041,1.847,2.759,0,3.813l-6.454,3.668Z" transform="translate(1826.341 4237.853)" fill="none" stroke="#fff" stroke-width="2" fill-rule="evenodd"/>
      <path id="Path_2363" data-name="Path 2363" d="M440.436,807.575,434.861,802,418.4,818.461a2.161,2.161,0,0,0,2.743.089l19.293-10.975" transform="translate(2309.779 4072)" fill="none" stroke="#fff" stroke-width="2" fill-rule="evenodd"/>
      <path id="Path_2362" data-name="Path 2362" d="M440.436,297.881l-19.293-10.959a2.139,2.139,0,0,0-2.743.089l16.461,16.445Z" transform="translate(2309.779 4570.544)" fill="none" stroke="#fff" stroke-width="2" fill-rule="evenodd"/>
    </g>
    <path id="Path_674" data-name="Path 674" d="M217.024,74.75H49.775A5.591,5.591,0,0,1,44.2,69.175v-44.6A5.591,5.591,0,0,1,49.775,19H217.024a5.591,5.591,0,0,1,5.575,5.575v44.6A5.591,5.591,0,0,1,217.024,74.75Z" transform="translate(2670.3 4825.5)" fill="none" stroke="#fff" stroke-width="1"/>
    <g id="Group_2973" data-name="Group 2973" transform="translate(-0.28 -28.724)">
      <path id="Path_2359" data-name="Path 2359" d="M1694.121,279.839a4.018,4.018,0,0,1-3-1.241,4.228,4.228,0,0,1-1.212-3.03,4.133,4.133,0,0,1,1.212-3.026,4.006,4.006,0,0,1,3-1.241,4.061,4.061,0,0,1,3,1.241,4.385,4.385,0,0,1,0,6.052A3.986,3.986,0,0,1,1694.121,279.839Zm-35.567,0a4.166,4.166,0,0,1-3.013-1.225,4.268,4.268,0,0,1,3.013-7.31,4.2,4.2,0,0,1,1.683.349,3.4,3.4,0,0,1,1.281.915l.079.1-.892.876-.092-.109a2.537,2.537,0,0,0-2.071-.892,2.863,2.863,0,0,0-2.065.843,3.2,3.2,0,0,0,0,4.386,3.019,3.019,0,0,0,4.185,0,2.281,2.281,0,0,0,.606-1.373h-2.861v-1.232h4.09l.016.112a4.5,4.5,0,0,1,.059.619,3.707,3.707,0,0,1-1.021,2.733A3.984,3.984,0,0,1,1658.554,279.839Zm47.29-.175h-1.261l-3.863-6.181.033,1.113v5.065h-1.261v-8.183h1.439l.04.063,3.632,5.822-.033-1.11v-4.775h1.274Zm-21.2,0h-1.278v-6.955h-2.216v-1.232h5.707v1.232h-2.216v6.955Zm-4.534,0h-1.274v-8.186h1.274Zm-7.162,0h-1.274v-6.955h-2.216v-1.232h5.707v1.232h-2.216Zm-4.3-.013h-4.887v-8.173h4.887v1.232h-3.609v2.246h3.257v1.218h-3.257v2.246h3.609Zm23.406-1.9a2.82,2.82,0,0,0,2.065.856,2.748,2.748,0,0,0,2.065-.856,3.245,3.245,0,0,0,0-4.36,2.825,2.825,0,0,0-2.065-.856,2.736,2.736,0,0,0-2.061.856,3.249,3.249,0,0,0-.007,4.36Z" transform="translate(1114.577 4612.225)" fill="#fff"/>
      <path id="Path_2360" data-name="Path 2360" d="M1682.441,689.237a5.618,5.618,0,1,0,5.634,5.618A5.53,5.53,0,0,0,1682.441,689.237Zm0,9.009a3.414,3.414,0,1,1,3.168-3.4A3.251,3.251,0,0,1,1682.441,698.246Zm-12.293-9.009a5.618,5.618,0,1,0,5.634,5.618A5.53,5.53,0,0,0,1670.149,689.237Zm0,9.009a3.414,3.414,0,1,1,3.168-3.4A3.251,3.251,0,0,1,1670.149,698.246Zm-14.627-7.294v2.377h5.707a5.011,5.011,0,0,1-1.291,2.993,5.822,5.822,0,0,1-4.4,1.745,6.34,6.34,0,0,1,0-12.678,6.092,6.092,0,0,1,4.3,1.7l1.686-1.686a8.291,8.291,0,0,0-5.97-2.407,8.717,8.717,0,1,0,0,17.433,7.98,7.98,0,0,0,6.089-2.45,7.889,7.889,0,0,0,2.068-5.575,7.364,7.364,0,0,0-.131-1.482h-8.055S1655.522,690.952,1655.522,690.952Zm59.829,1.851a5.22,5.22,0,0,0-4.811-3.579,5.337,5.337,0,0,0-5.3,5.618,5.491,5.491,0,0,0,5.575,5.618,5.576,5.576,0,0,0,4.679-2.493l-1.907-1.278a3.2,3.2,0,0,1-2.76,1.554,2.869,2.869,0,0,1-2.73-1.7l7.511-3.112S1715.351,692.8,1715.351,692.8Zm-7.659,1.877a3.083,3.083,0,0,1,2.934-3.273,2.166,2.166,0,0,1,2.084,1.189Zm-6.1,5.443h2.466v-16.5h-2.466Zm-4.051-9.638h-.089a3.891,3.891,0,0,0-2.964-1.261,5.618,5.618,0,0,0,0,11.226,3.881,3.881,0,0,0,2.964-1.278h.089v.807c0,2.144-1.146,3.3-2.993,3.3a3.114,3.114,0,0,1-2.832-2l-2.144.9a5.362,5.362,0,0,0,4.972,3.316c2.891,0,5.341-1.7,5.341-5.855v-10.08h-2.331v.925Zm-2.832,7.761a3.416,3.416,0,0,1,0-6.807,3.158,3.158,0,0,1,2.993,3.418A3.119,3.119,0,0,1,1694.708,698.246Zm32.192-14.627H1721v16.5h2.467v-6.25h3.434a5.135,5.135,0,1,0,0-10.254Zm.072,7.949h-3.507V685.9h3.507a2.833,2.833,0,1,1,0,5.664Zm15.23-2.361a4.645,4.645,0,0,0-4.4,2.522l2.187.909a2.345,2.345,0,0,1,2.246-1.218,2.382,2.382,0,0,1,2.6,2.127v.174a5.526,5.526,0,0,0-2.568-.632c-2.361,0-4.755,1.291-4.755,3.711a3.815,3.815,0,0,0,4.093,3.639,3.471,3.471,0,0,0,3.138-1.614h.089V700.1h2.378v-6.322C1747.2,690.837,1745.017,689.207,1742.2,689.207Zm-.31,9.039c-.807,0-1.936-.4-1.936-1.409,0-1.278,1.409-1.762,2.611-1.762a4.281,4.281,0,0,1,2.246.557A2.969,2.969,0,0,1,1741.892,698.246Zm13.985-8.687-2.832,7.159h-.089l-2.934-7.159h-2.654l4.4,10.007-2.509,5.562h2.568l6.774-15.569Zm-22.2,10.564h2.466v-16.5h-2.466Z" transform="translate(1121.926 4214.082)" fill="#fff" fill-rule="evenodd"/>
    </g>
  </g>
</svg>
