<svg xmlns="http://www.w3.org/2000/svg" width="227.954" height="37" viewBox="0 0 227.954 37">
  <g id="Group_790" data-name="Group 790" transform="translate(-456.83 -227.582)">
    <path id="Path_564" data-name="Path 564" d="M1749.216,257.716a2.716,2.716,0,0,1-.858-2.028c0-21.783-.481-25.479,0-28.105h-6.917q0,6.58,0,13.16v14.113a9.3,9.3,0,0,0,.78,3.8,10.1,10.1,0,0,0,2.107,3.095,9.636,9.636,0,0,0,3.121,2.081,9.76,9.76,0,0,0,3.823.754l1.663-.018,3.383-6.016h-5.045A2.845,2.845,0,0,1,1749.216,257.716Z" transform="translate(-1112.101 0)" fill="#fff"/>
    <rect id="Rectangle_360" data-name="Rectangle 360" width="3.745" height="5.774" transform="translate(625.594 237.653)" fill="#fff"/>
    <path id="Path_565" data-name="Path 565" d="M2102.7,227.928l-.053,36.935h6.938V227.928Z" transform="translate(-1424.805 -0.3)" fill="#fff"/>
    <path id="Path_566" data-name="Path 566" d="M606.612,234.023v-6.2h-9.4l3.1,6.2Z" transform="translate(-121.53 -0.209)" fill="#fff"/>
    <path id="Path_567" data-name="Path 567" d="M456.83,227.824v6.2H467.3q0,15.375,0,30.75h7.326q-.005-18.475-.01-36.949Z" transform="translate(0 -0.209)" fill="#fff"/>
    <path id="Path_568" data-name="Path 568" d="M1301.532,306.481a13.794,13.794,0,0,0-4.278-2.9,12.918,12.918,0,0,0-5.217-1.069,13.227,13.227,0,0,0-5.3,1.069,13.58,13.58,0,0,0-7.2,7.173,13.034,13.034,0,0,0-1.069,5.269,12.9,12.9,0,0,0,1.069,5.217,13.738,13.738,0,0,0,2.9,4.278,13.31,13.31,0,0,0,4.3,2.869,13.507,13.507,0,0,0,5.3,1.043,13.467,13.467,0,0,0,10.625-5.174l-5.669-3.173-.1-.052-.052.052a4.823,4.823,0,0,1-2.217,1.748,8.127,8.127,0,0,1-2.583.391,5.662,5.662,0,0,1-2.817-.7,7.778,7.778,0,0,1-2.139-1.741,7.556,7.556,0,0,1-1.356-2.313,7.114,7.114,0,0,1-.47-2.469,7.8,7.8,0,0,1,.522-2.885,6.993,6.993,0,0,1,1.435-2.287,6.913,6.913,0,0,1,2.165-1.533,6.326,6.326,0,0,1,2.661-.572,6.053,6.053,0,0,1,3.991,1.409,7.775,7.775,0,0,1,2.426,3.6l-9.641.007,3.068,5.314h13.251l.052-.1a13.422,13.422,0,0,0,.313-2.921,13.048,13.048,0,0,0-1.069-5.269A13.792,13.792,0,0,0,1301.532,306.481Z" transform="translate(-711.305 -64.871)" fill="#fff"/>
    <path id="Path_569" data-name="Path 569" d="M1179.91,432.464l5.122,6.319h8.521l-8.042-9.957Z" transform="translate(-625.979 -174.219)" fill="#fff"/>
    <path id="Path_570" data-name="Path 570" d="M1076.268,254a13.137,13.137,0,0,0,7.669-5.6,12.969,12.969,0,0,0,2.06-7.216,13.618,13.618,0,0,0-3.782-9.451,13.183,13.183,0,0,0-4.069-2.854,11.946,11.946,0,0,0-4.982-1.05h-16.59l-.011,36.949h7.373c0-.184,0-5.039,0-5.222s0-5,0-5.178q3.6,0,5.869.027.582.007,1.115.007,1.581,0,2.745-.061A13.8,13.8,0,0,0,1076.268,254Zm-12.338-4.921V234.023h9.182a4.092,4.092,0,0,1,2.165.621,6.145,6.145,0,0,1,1.774,1.666,8.937,8.937,0,0,1,1.643,5.161c0,.051,0,.1,0,.152s0,.075,0,.112a8.234,8.234,0,0,1-1.617,5.347,4.929,4.929,0,0,1-3.965,1.993Z" transform="translate(-519.195 -0.209)" fill="#fff"/>
    <path id="Path_571" data-name="Path 571" d="M1499.1,329.444h7.095q0-13.459,0-26.918h-7.1Z" transform="translate(-902.298 -64.88)" fill="#fff"/>
    <path id="Path_572" data-name="Path 572" d="M1577.858,310.028a10.034,10.034,0,0,0-1.878-4.069,11.413,11.413,0,0,0-8.137-3.429c-.344-.009-.784-.014-.784-.014l-6.844.008,3.478,6.226h2.694a7.175,7.175,0,0,1,2.811.549,3.439,3.439,0,0,1,1.513,1.6,6.5,6.5,0,0,1,.548,2.353q.078,1.334.078,2.8l-.005,13.388h7.1l0-13.355A27.068,27.068,0,0,0,1577.858,310.028Z" transform="translate(-955.212 -64.871)" fill="#fff"/>
    <path id="Path_573" data-name="Path 573" d="M857.1,306.481a13.79,13.79,0,0,0-4.278-2.9,12.918,12.918,0,0,0-5.217-1.069,13.228,13.228,0,0,0-5.3,1.069,13.579,13.579,0,0,0-7.2,7.173,13.03,13.03,0,0,0-1.069,5.269,12.9,12.9,0,0,0,1.069,5.217,13.737,13.737,0,0,0,2.9,4.278,13.313,13.313,0,0,0,4.3,2.869,13.508,13.508,0,0,0,5.3,1.043,13.467,13.467,0,0,0,10.625-5.174l-5.669-3.173-.1-.052-.052.052a4.821,4.821,0,0,1-2.217,1.748,8.125,8.125,0,0,1-2.582.391,5.662,5.662,0,0,1-2.817-.7,7.782,7.782,0,0,1-2.139-1.741,7.549,7.549,0,0,1-1.356-2.313,7.114,7.114,0,0,1-.47-2.469,7.8,7.8,0,0,1,.522-2.885,7,7,0,0,1,1.435-2.287,6.911,6.911,0,0,1,2.165-1.533,6.325,6.325,0,0,1,2.661-.572,6.053,6.053,0,0,1,3.991,1.409,7.771,7.771,0,0,1,2.426,3.6l-9.641.007,3.068,5.314H860.7l.052-.1a13.429,13.429,0,0,0,.313-2.921A13.052,13.052,0,0,0,860,310.759,13.791,13.791,0,0,0,857.1,306.481Z" transform="translate(-326.559 -64.871)" fill="#fff"/>
    <path id="Path_574" data-name="Path 574" d="M640.332,306.481a13.79,13.79,0,0,0-4.278-2.9,12.918,12.918,0,0,0-5.217-1.069,13.227,13.227,0,0,0-5.3,1.069,13.578,13.578,0,0,0-7.2,7.173,13.03,13.03,0,0,0-1.07,5.269,12.9,12.9,0,0,0,1.07,5.217,13.737,13.737,0,0,0,2.9,4.278,13.312,13.312,0,0,0,4.3,2.869,13.507,13.507,0,0,0,5.3,1.043,13.467,13.467,0,0,0,10.625-5.174l-5.669-3.173-.1-.052-.052.052a4.82,4.82,0,0,1-2.217,1.748,8.127,8.127,0,0,1-2.583.391,5.661,5.661,0,0,1-2.817-.7,7.777,7.777,0,0,1-2.139-1.741,7.554,7.554,0,0,1-1.356-2.313,7.117,7.117,0,0,1-.47-2.469,7.8,7.8,0,0,1,.522-2.885,6.991,6.991,0,0,1,1.435-2.287,6.913,6.913,0,0,1,2.165-1.533,6.325,6.325,0,0,1,2.661-.572,6.053,6.053,0,0,1,3.991,1.409,7.774,7.774,0,0,1,2.426,3.6l-9.641.007,3.068,5.314h13.251l.052-.1a13.429,13.429,0,0,0,.313-2.921,13.046,13.046,0,0,0-1.069-5.269A13.79,13.79,0,0,0,640.332,306.481Z" transform="translate(-138.897 -64.871)" fill="#fff"/>
    <path id="Path_575" data-name="Path 575" d="M1888.407,304.264a14.578,14.578,0,0,0-1.353-.679,12.919,12.919,0,0,0-5.217-1.069,13.229,13.229,0,0,0-5.3,1.069,13.579,13.579,0,0,0-7.2,7.173,13.038,13.038,0,0,0-1.069,5.269,12.905,12.905,0,0,0,1.069,5.217,13.746,13.746,0,0,0,2.9,4.278,13.316,13.316,0,0,0,4.3,2.869,13.51,13.51,0,0,0,5.3,1.043,13.9,13.9,0,0,0,3.04-.342,13.266,13.266,0,0,0,1.34-.385l-.02-.035v.041l-1.55-2.774-1.55-2.774-.049.01a1.623,1.623,0,0,1-.224.027,7.633,7.633,0,0,1-.988.024,5.945,5.945,0,0,1-2.817-.7,7.779,7.779,0,0,1-2.139-1.741,7.559,7.559,0,0,1-1.356-2.313,7.117,7.117,0,0,1-.469-2.469,7.807,7.807,0,0,1,.522-2.885,6.989,6.989,0,0,1,1.435-2.287,6.913,6.913,0,0,1,2.165-1.533,6.325,6.325,0,0,1,2.661-.572,6.054,6.054,0,0,1,3.991,1.409,7.479,7.479,0,0,1,1.05,1.059,8.343,8.343,0,0,1,1.51,2.99h0l-.029,15.254h6.938V302.516h-6.886Z" transform="translate(-1221.902 -64.871)" fill="#fff"/>
    <path id="Path_576" data-name="Path 576" d="M1802.763,308.352h3.849v-5.774h-7.074Z" transform="translate(-1162.397 -64.925)" fill="#fff"/>
  </g>
</svg>
